<svg width="38" height="38" viewBox="0 0 38 38" fill="none" xmlns="http://www.w3.org/2000/svg">
<path d="M6.41172 6.22168C6.00859 6.22168 5.62198 6.38182 5.33692 6.66688C5.05187 6.95193 4.89172 7.33855 4.89172 7.74168V32.9175C4.89172 33.1171 4.93107 33.3149 5.0075 33.4993C5.08394 33.6838 5.19597 33.8514 5.3372 33.9926C5.47843 34.1337 5.64609 34.2457 5.83059 34.322C6.0151 34.3983 6.21284 34.4376 6.41252 34.4375H31.5875C31.9906 34.4375 32.3773 34.2773 32.6623 33.9923C32.9474 33.7072 33.1075 33.3206 33.1075 32.9175V7.74168C33.1075 7.33855 32.9474 6.95193 32.6623 6.66688C32.3773 6.38182 31.9906 6.22168 31.5875 6.22168H6.41172Z" stroke="#A3A3A3" stroke-linecap="round" stroke-linejoin="round"/>
<path d="M10.1468 8.12092V3.5625M27.8532 8.12092V3.5625M7.17883 26.5549H13.114V32.1583H7.17883V26.5549ZM16.032 26.5549H21.9672V32.1583H16.032V26.5549ZM24.886 26.5549H30.8212V32.1583H24.886V26.5549ZM7.17883 18.4735H13.114V24.077H7.17883V18.4735ZM16.032 18.4735H21.9672V24.077H16.032V18.4735ZM24.886 18.4735H30.8212V24.077H24.886V18.4735ZM24.886 10.7643H30.8212V16.3677H24.886V10.7643Z" stroke="#A3A3A3" stroke-linecap="round" stroke-linejoin="round"/>
</svg>
